<svg width="21" height="21" fill="none" xmlns="http://www.w3.org/2000/svg"><path fill-rule="evenodd" clip-rule="evenodd" d="M17.486 3.007A9.896 9.896 0 0014.256.85 9.934 9.934 0 0010.443.1C4.953.1.485 4.546.483 10.01c0 1.747.458 3.452 1.329 4.955L.4 20.1l5.279-1.379a10 10 0 004.759 1.207h.004c5.488 0 9.956-4.446 9.958-9.91a9.816 9.816 0 00-2.914-7.011zm-4.204 8.272c.228.083 1.45.681 1.7.806l.136.066c.173.084.291.14.341.224.062.104.062.6-.145 1.178-.207.579-1.201 1.106-1.68 1.177-.429.063-.971.09-1.567-.098a14.73 14.73 0 01-1.419-.522c-2.335-1.004-3.912-3.257-4.208-3.68l-.042-.06-.004-.004c-.135-.18-1.012-1.35-1.012-2.558 0-1.14.562-1.738.821-2.013l.05-.052a.916.916 0 01.664-.31c.158 0 .317.003.476.01h.054c.146-.002.327-.003.505.422l.28.674c.212.516.446 1.082.487 1.165.064.124.105.269.021.434a9.404 9.404 0 00-.035.072 1.42 1.42 0 01-.213.341l-.127.152c-.086.104-.171.208-.246.282-.125.124-.255.257-.11.506.146.248.645 1.058 1.385 1.715a6.434 6.434 0 001.837 1.156c.068.029.123.053.164.073.248.124.394.104.539-.062.145-.165.622-.723.789-.97.166-.248.331-.207.559-.124z" fill="#8D959D"/></svg>